<?xml version="1.0" encoding="UTF-8"?>
<svg viewBox="0 0 320 200" xmlns="http://www.w3.org/2000/svg" width="320" height="200">
      <defs>
        <filter id="sh4" x="-20%" y="-20%" width="140%" height="140%">
          <feDropShadow dx="0" dy="3" stdDeviation="4" flood-color="#141413" flood-opacity="0.08"/>
        </filter>
      </defs>
      <!-- .MD document, tilted slightly -->
      <g transform="rotate(-4 80 110)" filter="url(#sh4)">
        <rect x="40" y="50" width="80" height="120" rx="4" fill="#F0EEE6" stroke="#141413" stroke-width="1.5"/>
        <rect x="60" y="42" width="32" height="14" rx="3" fill="#FFFFFF" stroke="#141413" stroke-width="1"/>
        <text x="76" y="52" text-anchor="middle" font-family="JetBrains Mono, ui-monospace, monospace" font-size="8" font-weight="500" fill="#141413">.MD</text>
        <rect x="50" y="68"  width="50" height="3" rx="1.5" fill="#D1CFC5"/>
        <rect x="50" y="78"  width="60" height="3" rx="1.5" fill="#D1CFC5"/>
        <rect x="50" y="88"  width="40" height="3" rx="1.5" fill="#D1CFC5"/>
        <rect x="50" y="98"  width="55" height="3" rx="1.5" fill="#D1CFC5"/>
        <rect x="50" y="108" width="48" height="3" rx="1.5" fill="#D1CFC5"/>
        <rect x="50" y="118" width="60" height="3" rx="1.5" fill="#D1CFC5"/>
        <rect x="50" y="128" width="35" height="3" rx="1.5" fill="#D1CFC5"/>
        <rect x="50" y="138" width="52" height="3" rx="1.5" fill="#D1CFC5"/>
      </g>
      <!-- .HTML document, upright -->
      <g filter="url(#sh4)">
        <rect x="180" y="40" width="100" height="140" rx="4" fill="#FFFFFF" stroke="#141413" stroke-width="1.5"/>
        <rect x="210" y="32" width="40" height="14" rx="3" fill="#FFFFFF" stroke="#141413" stroke-width="1"/>
        <text x="230" y="42" text-anchor="middle" font-family="JetBrains Mono, ui-monospace, monospace" font-size="8" font-weight="500" fill="#141413">.HTML</text>
        <rect x="190" y="56" width="40" height="3" rx="1.5" fill="#D1CFC5"/>
        <rect x="190" y="68" width="80" height="48" rx="2" fill="#E3DACC"/>
        <ellipse cx="230" cy="92" rx="22" ry="13" fill="none" stroke="#D97757" stroke-width="2" transform="rotate(-2 230 92)"/>
        <rect x="190" y="124" width="14" height="12" rx="2" fill="#788C5D"/>
        <rect x="208" y="124" width="14" height="12" rx="2" fill="#D97757"/>
        <rect x="226" y="124" width="14" height="12" rx="2" fill="#E3DACC" stroke="#141413" stroke-width=".5"/>
        <rect x="244" y="124" width="14" height="12" rx="2" fill="#141413"/>
        <rect x="190" y="148" width="60" height="3" rx="1.5" fill="#D1CFC5"/>
        <rect x="190" y="158" width="44" height="3" rx="1.5" fill="#D1CFC5"/>
      </g>
    </svg>
