<?xml version="1.0" encoding="UTF-8"?>
<svg viewBox="0 0 160 200" xmlns="http://www.w3.org/2000/svg" width="160" height="200">
      <defs>
        <filter id="sh5" x="-20%" y="-20%" width="140%" height="140%">
          <feDropShadow dx="0" dy="3" stdDeviation="4" flood-color="#141413" flood-opacity="0.08"/>
        </filter>
      </defs>
      <g filter="url(#sh5)">
        <rect x="30" y="40" width="100" height="140" rx="4" fill="#FFFFFF" stroke="#141413" stroke-width="1.5"/>
        <rect x="60" y="32" width="40" height="14" rx="3" fill="#FFFFFF" stroke="#141413" stroke-width="1"/>
        <text x="80" y="42" text-anchor="middle" font-family="JetBrains Mono, ui-monospace, monospace" font-size="8" font-weight="500" fill="#141413">.HTML</text>
        <rect x="40" y="56" width="40" height="3" rx="1.5" fill="#D1CFC5"/>
        <rect x="40" y="68" width="80" height="48" rx="2" fill="#E3DACC"/>
        <ellipse cx="80" cy="92" rx="22" ry="13" fill="none" stroke="#D97757" stroke-width="2" transform="rotate(-2 80 92)"/>
        <rect x="40" y="124" width="14" height="12" rx="2" fill="#788C5D"/>
        <rect x="58" y="124" width="14" height="12" rx="2" fill="#D97757"/>
        <rect x="76" y="124" width="14" height="12" rx="2" fill="#E3DACC" stroke="#141413" stroke-width=".5"/>
        <rect x="94" y="124" width="14" height="12" rx="2" fill="#141413"/>
        <rect x="40" y="148" width="60" height="3" rx="1.5" fill="#D1CFC5"/>
        <rect x="40" y="158" width="44" height="3" rx="1.5" fill="#D1CFC5"/>
      </g>
    </svg>
